<svg width="547" height="125" viewBox="0 0 547 125" fill="none" xmlns="http://www.w3.org/2000/svg">
<g clip-path="url(#clip0_2152_1046)">
<path fill-rule="evenodd" clip-rule="evenodd" d="M432.888 100.214C438.166 98.3597 442.659 95.5564 446.368 91.7987C450.077 88.043 452.951 83.3604 454.998 77.7488C457.041 72.1392 458.064 65.6241 458.064 58.2075V1.58006H440.663V59.0631C440.663 68.2878 438.413 75.2297 433.92 79.8879C429.425 84.5481 423.256 86.8777 415.416 86.8777C407.477 86.8777 401.261 84.4524 396.768 79.6027C392.273 74.753 390.026 67.6705 390.026 58.3501V1.58006H372.625V59.0631C372.625 66.2903 373.623 72.6384 375.619 78.1053C377.617 83.5743 380.469 88.1612 384.178 91.87C387.887 95.5778 392.355 98.3597 397.586 100.214C402.815 102.068 408.662 102.995 415.131 102.995C421.692 102.995 427.611 102.068 432.888 100.214ZM499.283 86.3061C496.62 85.1653 494.291 83.5497 492.294 81.4565C490.297 79.3662 488.704 76.8217 487.516 73.8259C486.325 70.8302 485.732 67.5278 485.732 63.9127V63.6275C485.732 60.0144 486.325 56.7334 487.516 53.7855C488.704 50.8386 490.297 48.2941 492.294 46.154C494.291 44.0148 496.62 42.3738 499.283 41.233C501.945 40.0921 504.75 39.5217 507.699 39.5217C510.645 39.5217 513.427 40.0921 516.044 41.233C518.657 42.3738 520.94 43.9924 522.89 46.0826C524.837 48.1759 526.385 50.7184 527.526 53.7142C528.666 56.709 529.237 60.0144 529.237 63.6275V63.9127C529.237 67.6215 528.666 70.9728 527.526 73.9685C526.385 76.9643 524.837 79.4844 522.89 81.5278C520.94 83.5742 518.657 85.1653 516.044 86.3061C513.427 87.448 510.645 88.0184 507.699 88.0184C504.75 88.0184 501.945 87.448 499.283 86.3061ZM468.762 124.248H486.164V89.7296C488.821 93.2489 492.189 96.3405 496.267 99.0011C500.346 101.663 505.469 102.995 511.636 102.995C516.094 102.995 520.435 102.14 524.656 100.427C528.878 98.7159 532.626 96.1979 535.898 92.868C539.17 89.5401 541.779 85.4503 543.725 80.6007C545.669 75.751 546.642 70.1883 546.642 63.9125V63.6273C546.642 57.3516 545.646 51.7878 543.654 46.9381C541.661 42.0885 539.027 38.0017 535.755 34.6719C532.483 31.344 528.759 28.8239 524.585 27.1116C520.411 25.4003 516.094 24.5447 511.636 24.5447C505.565 24.5447 500.488 25.8995 496.41 28.61C492.331 31.3196 488.914 34.6719 486.164 38.6659V26.1134H468.762V124.248V124.248Z" fill="#51BFFC"/>
<path fill-rule="evenodd" clip-rule="evenodd" d="M177.255 100.87C181.508 99.5747 185.152 97.675 188.182 95.1743C191.213 92.6725 193.579 89.6166 195.279 86.0036C196.979 82.3915 197.829 78.317 197.829 73.777V73.4989C197.829 69.5181 197.154 66.0202 195.809 63.0091C194.462 60.0001 192.489 57.3608 189.888 55.0893C187.288 52.8208 184.016 50.8997 180.069 49.3239C176.123 47.7501 171.594 46.3149 166.487 45.0161C161.845 43.9048 158.012 42.8414 154.994 41.8207C151.977 40.8031 149.609 39.7152 147.891 38.556C146.172 37.3988 144.989 36.1031 144.339 34.6659C143.689 33.2306 143.365 31.5876 143.365 29.7327V29.4556C143.365 26.2143 144.754 23.4814 147.533 21.2577C150.312 19.0351 154.203 17.9237 159.204 17.9237C163.651 17.9237 168.049 18.7804 172.404 20.4937C176.756 22.2091 181.157 24.6854 185.603 27.9266L194.773 15.0054C189.771 11.0236 184.421 7.98908 178.725 5.90497C173.029 3.82086 166.614 2.77881 159.482 2.77881C154.665 2.77881 150.223 3.47351 146.157 4.86292C142.088 6.25232 138.609 8.17549 135.715 10.6294C132.821 13.0842 130.548 16.0474 128.894 19.5209C127.24 22.9945 126.415 26.8153 126.415 30.9835V31.2616C126.415 35.7079 127.133 39.5064 128.572 42.6549C130.011 45.8045 132.103 48.4682 134.842 50.644C137.582 52.8208 140.971 54.6727 145.011 56.2016C149.049 57.7296 153.668 59.0976 158.87 60.2996C163.42 61.3202 167.111 62.3389 169.944 63.3565C172.774 64.3771 175.004 65.4885 176.63 66.6914C178.255 67.8965 179.37 69.1708 179.974 70.5123C180.577 71.8559 180.879 73.4083 180.879 75.1664V75.4445C180.879 79.1503 179.326 82.1134 176.224 84.3361C173.12 86.5597 168.93 87.6711 163.651 87.6711C157.537 87.6711 152.071 86.5832 147.256 84.4064C142.438 82.2306 137.668 79.1044 132.944 75.0279L122.663 87.2544C128.499 92.534 134.842 96.4486 141.698 98.9951C148.551 101.542 155.731 102.816 163.234 102.816C168.326 102.816 173.001 102.166 177.255 100.87ZM204.915 101.427H221.865V80.4459L232.147 69.7483L254.238 101.427H273.69L243.54 57.9384L272.717 28.0662H252.293L221.865 60.5777V0H204.915V101.427ZM281.192 101.427H298.142V28.0665H281.192V101.427ZM280.495 16.811H298.696V0.832816H280.495V16.811ZM312.591 101.427H329.542V0H312.591V101.427ZM343.991 101.427H360.942V0H343.991V101.427Z" fill="#044150"/>
</g>
<path fill-rule="evenodd" clip-rule="evenodd" d="M59.8598 118.6C88.0414 118.6 110.887 95.7544 110.887 67.5719C110.887 39.3904 88.0414 16.5444 59.8598 16.5444C31.6773 16.5444 8.8313 39.3904 8.8313 67.5719C8.8313 95.7544 31.6773 118.6 59.8598 118.6" fill="#51BFFC"/>
<path fill-rule="evenodd" clip-rule="evenodd" d="M97.0571 3.734C98.4065 4.58328 99.1081 6.16444 98.8324 7.73484L85.9959 80.8462C85.741 82.2977 84.6947 83.4841 83.2865 83.9184C81.8783 84.3526 80.3455 83.9616 79.3175 82.9058L59.3694 62.4193L32.984 54.3422C31.5562 53.9051 30.5001 52.6957 30.2592 51.2221C30.0183 49.7484 30.6344 48.2657 31.8487 47.3968L92.682 3.86395C93.9786 2.93608 95.7077 2.88472 97.0571 3.734ZM42.8748 49.1599L62.6291 55.2071C63.26 55.4002 63.832 55.7493 64.2924 56.222L79.5903 71.9329L89.4391 15.8381L42.8748 49.1599Z" fill="#044150"/>
<path fill-rule="evenodd" clip-rule="evenodd" d="M47.0835 61.6441C48.3751 62.6317 48.6214 64.4794 47.6338 65.7709L33.1232 84.7465C32.1356 86.038 30.2879 86.2844 28.9964 85.2967C27.7048 84.3091 27.4585 82.4615 28.4461 81.1699L42.9567 62.1944C43.9444 60.9028 45.792 60.6565 47.0835 61.6441ZM53.6783 73.3978C55.0075 74.3341 55.3259 76.1707 54.3896 77.4999L35.9822 103.629C35.0458 104.958 33.2092 105.277 31.88 104.34C30.5509 103.404 30.2324 101.567 31.1688 100.238L49.5762 74.109C50.5126 72.7798 52.3491 72.4614 53.6783 73.3978ZM67.7634 74.9476C69.1129 75.8544 69.4719 77.6835 68.5652 79.033L54.0752 100.599C53.1684 101.949 51.3393 102.308 49.9898 101.401C48.6402 100.494 48.2812 98.6652 49.188 97.3156L63.678 75.7494C64.5847 74.3999 66.4138 74.0409 67.7634 74.9476Z" fill="#044150"/>
<path fill-rule="evenodd" clip-rule="evenodd" d="M60.3635 58.7031L94.9664 7.61427L34.6906 51.2619L60.3635 58.7031" fill="#044150"/>
<defs>
<clipPath id="clip0_2152_1046">
<rect width="424.065" height="125" fill="white" transform="translate(122.663)"/>
</clipPath>
</defs>
</svg>
