<?xml version="1.0" encoding="UTF-8" standalone="no"?>
<!-- Created with Inkscape (http://www.inkscape.org/) -->

<svg
   width="87.767578mm"
   height="164.65993mm"
   viewBox="0 0 87.767578 164.65993"
   version="1.1"
   id="svg1"
   xml:space="preserve"
   inkscape:version="1.4 (86a8ad7, 2024-10-11)"
   sodipodi:docname="generator.svg"
   xmlns:inkscape="http://www.inkscape.org/namespaces/inkscape"
   xmlns:sodipodi="http://sodipodi.sourceforge.net/DTD/sodipodi-0.dtd"
   xmlns="http://www.w3.org/2000/svg"
   xmlns:svg="http://www.w3.org/2000/svg"><sodipodi:namedview
     id="namedview1"
     pagecolor="#ffffff"
     bordercolor="#000000"
     borderopacity="0.25"
     inkscape:showpageshadow="2"
     inkscape:pageopacity="0.0"
     inkscape:pagecheckerboard="0"
     inkscape:deskcolor="#d1d1d1"
     inkscape:document-units="mm"
     inkscape:zoom="3.0564115"
     inkscape:cx="116.64005"
     inkscape:cy="287.75575"
     inkscape:window-width="2560"
     inkscape:window-height="1494"
     inkscape:window-x="-11"
     inkscape:window-y="-11"
     inkscape:window-maximized="1"
     inkscape:current-layer="layer1" /><defs
     id="defs1"><inkscape:path-effect
       effect="simplify"
       id="path-effect4"
       is_visible="true"
       lpeversion="1.3"
       threshold="11.429471"
       steps="1"
       smooth_angles="49.13649"
       helper_size="4.5961003"
       simplify_individual_paths="true"
       simplify_just_coalesce="false" /></defs><g
     inkscape:label="Layer 1"
     inkscape:groupmode="layer"
     id="layer1"
     transform="translate(-41.379224,-24.852017)"><path
       style="fill:#333333;stroke-width:0.264583"
       d="m 55.853656,130.79184 c 0,0 6.623158,-1.82281 10.010316,-1.75722 3.420052,0.0662 5.795145,0.40221 8.692086,0.61212 2.701049,0.19571 6.992598,0.83763 8.995069,2.62479 1.827641,1.63113 -1.39737,1.37997 -1.39737,1.37997 l -2.136574,0.15765 -13.173822,0.61212 -2.381111,0.4934 -5.339229,-2.18761 -2.093507,-1.00166 z"
       id="path2"
       sodipodi:nodetypes="csssccccccc" /><path
       style="fill:#000000;stroke-width:0.418997"
       d="m 78.546284,134.00179 8.724229,-2.52033 12.60166,-6.97939 18.030067,-15.89747 -23.846219,13.95876 15.509739,-12.79554 8.33648,-9.887446 3.29583,-8.336482 1.16322,-15.121994 2.13259,3.683561 v 5.622282 l 1.93872,-8.336482 2.7142,-18.805567 -1.55097,-10.856816 -3.29582,-12.40779 -1.16324,-10.469069 -10.8568,17.448459 -4.8468,12.40779 -0.38775,1.357092 -1.35709,-5.040653 -10.662948,13.764882 -10.275203,15.509738 -3.093206,3.491532 -2.544865,7.878362 -1.589487,-5.006371 -1.520948,13.774702 -0.766959,3.08184 -0.698421,3.28748 -0.150126,3.15037 -0.629866,5.06962 -0.698421,5.00106 1.426439,7.46865"
       id="path4"
       sodipodi:nodetypes="cccccccccccccccccccccccccccccccc" /><path
       style="fill:#560049;stroke-width:0.418997;fill-opacity:1"
       d="m 71.373044,140.7873 h 3.683561 L 115.76965,52.187931 99.872173,79.329964 72.342389,139.23633 Z"
       id="path3" /><path
       style="fill:#4d4d4d;stroke-width:0.264583"
       d="m 55.825225,130.74856 -1.713931,3.91756 1.224238,1.22423 -0.244848,3.91756 -2.203628,0.30606 v 2.63211 l 1.469086,0.97939 -0.489696,3.42787 -9.304205,2.69332 -3.183017,5.38664 0.734542,30.60594 6.121188,1.95878 18.853256,1.71393 14.935697,-1.22424 11.262984,-1.22423 3.672711,-1.10181 1.224239,-2.69332 0.244846,-9.18179 -1.224238,-24.2399 -12.487219,-3.91756 -0.09182,-2.24954 1.866962,-0.71923 -0.30606,-3.82574 -2.264838,-0.15304 -0.550906,-3.42786 1.323931,-1.86678 -0.267577,-1.37708 -0.895449,0.22936 -2.242109,0.90269 -16.159935,0.73454 -5.87634,-1.46908 z"
       id="path1"
       sodipodi:nodetypes="cccccccccccccccccccccccccccccccc" /></g></svg>
