<?xml version="1.0" encoding="UTF-8" standalone="no"?>
<!-- Created with Inkscape (http://www.inkscape.org/) -->

<svg
   width="411.70227mm"
   height="478.5603mm"
   viewBox="0 0 411.70228 478.5603"
   version="1.1"
   id="svg1"
   xml:space="preserve"
   inkscape:version="1.4 (86a8ad7, 2024-10-11)"
   sodipodi:docname="websafelogo.svg"
   xmlns:inkscape="http://www.inkscape.org/namespaces/inkscape"
   xmlns:sodipodi="http://sodipodi.sourceforge.net/DTD/sodipodi-0.dtd"
   xmlns="http://www.w3.org/2000/svg"
   xmlns:svg="http://www.w3.org/2000/svg"><sodipodi:namedview
     id="namedview1"
     pagecolor="#ffffff"
     bordercolor="#000000"
     borderopacity="0.25"
     inkscape:showpageshadow="2"
     inkscape:pageopacity="0.0"
     inkscape:pagecheckerboard="0"
     inkscape:deskcolor="#d1d1d1"
     inkscape:document-units="mm"
     inkscape:zoom="0.54030233"
     inkscape:cx="51.822838"
     inkscape:cy="885.61528"
     inkscape:window-width="2560"
     inkscape:window-height="1494"
     inkscape:window-x="-11"
     inkscape:window-y="-11"
     inkscape:window-maximized="1"
     inkscape:current-layer="layer1" /><defs
     id="defs1" /><g
     inkscape:label="Layer 1"
     inkscape:groupmode="layer"
     id="layer1"
     transform="translate(-21.841603,150.97225)"><ellipse
       style="fill:#056000;fill-opacity:1;fill-rule:evenodd;stroke-width:13.2292"
       id="path1"
       cx="294.67291"
       cy="-108.72772"
       rx="41.898262"
       ry="42.24453" /><path
       style="fill:#056000;fill-opacity:1;fill-rule:evenodd;stroke-width:13.2292"
       d="M 259.69997,-55.402662 227.15091,-46.399727 215.29383,-5.4598515 164.13038,187.67651 54.710128,172.44078 c 0,0 -13.372271,-3.06059 -19.390931,-0.69253 -5.468303,2.15152 -10.957331,6.78612 -12.465599,12.4656 -2.026673,7.63157 -1.509699,21.30377 6.232799,22.85359 68.892919,13.79035 159.455783,21.12227 159.455783,21.12227 l 14.37006,-9.3492 27.0088,-69.94586 83.96966,33.58786 12.98499,133.13953 c 0,0 7.70805,12.53035 15.40887,11.9462 3.51218,-0.26642 12.5151,-1.69477 17.52359,-5.99978 5.00849,-4.30501 6.02253,-11.48669 6.02253,-11.48669 L 351.11436,168.97811 258.31491,102.49492 295.71169,-0.69253327 295.54727,-44.482959 Z"
       id="path2"
       sodipodi:nodetypes="cccccssscccccsscccccc" /><path
       style="fill:#056000;fill-opacity:1;fill-rule:evenodd;stroke-width:13.2292"
       d="m 294.67291,-45.014663 54.36386,47.4385294 62.328,-61.2891934 c 0,0 14.18115,-0.66926 18.6984,3.808933 3.9388,3.904741 3.46265,16.274531 3.46265,16.274531 l -77.21746,74.447325 -8.65666,1.731333 -7.96414,-1.731333 -50.90119,-37.7430618 z"
       id="path3"
       sodipodi:nodetypes="cccscccccc" /><path
       style="fill:#056000;fill-opacity:1;fill-rule:evenodd;stroke-width:13.2292"
       d="m 240.40707,-48.879901 -71.24439,11.405262 -20.3592,-85.009691 c 0,0 -11.66978,-8.08512 -17.87403,-6.68261 -5.40977,1.22291 -11.56345,11.96399 -11.56345,11.96399 l 26.00905,104.05994 6.4224,6.0570662 7.6708,2.753867 63.1686,-5.019837 z"
       id="path4"
       sodipodi:nodetypes="cccscccccc" /></g></svg>
